<?xml version="1.0" encoding="UTF-8"?>
<!DOCTYPE svg PUBLIC "-//W3C//DTD SVG 1.1//EN" "http://www.w3.org/Graphics/SVG/1.1/DTD/svg11.dtd">
<!-- Creator: CorelDRAW X7 -->
<svg xmlns="http://www.w3.org/2000/svg" xml:space="preserve" width="0.85in" height="0.27in" version="1.1" style="shape-rendering:geometricPrecision; text-rendering:geometricPrecision; image-rendering:optimizeQuality; fill-rule:evenodd; clip-rule:evenodd"
viewBox="0 0 850 270"
 xmlns:xlink="http://www.w3.org/1999/xlink"
 xmlns:dc="http://purl.org/dc/elements/1.1/"
 xmlns:cc="http://creativecommons.org/ns#"
 xmlns:rdf="http://www.w3.org/1999/02/22-rdf-syntax-ns#"
 xmlns:svg="http://www.w3.org/2000/svg"
 xmlns:sodipodi="http://sodipodi.sourceforge.net/DTD/sodipodi-0.dtd"
 xmlns:inkscape="http://www.inkscape.org/namespaces/inkscape"
 inkscape:version="0.92.1 r15371"
 sodipodi:docname="timetrackerlogo.svg">
 <defs>
  <style type="text/css">
   <![CDATA[
    .fil1 {fill:#3E4095}
    .fil0 {fill:#3E4095;fill-rule:nonzero}
   ]]>
  </style>
 </defs>
 <g id="Layer_x0020_1">
  <metadata id="CorelCorpID_0Corel-Layer"/>
  <path class="fil0" d="M217 23c0,5 -3,8 -9,8 -6,-1 -12,-2 -19,-2 -6,-1 -13,-1 -21,-1 -8,0 -23,2 -42,6 -20,4 -37,9 -52,16 -12,5 -21,9 -25,13 -4,2 -6,5 -7,8 -2,5 -3,7 -3,8 -1,3 -4,5 -6,5 -9,0 -13,-8 -13,-22 0,-9 13,-19 39,-29 17,-6 36,-12 57,-16 21,-5 39,-7 53,-7 9,0 18,0 27,0 13,0 20,6 21,13zm-86 51c0,6 0,19 -1,38 0,19 0,34 0,47 0,20 -2,41 -6,62 -3,21 -8,31 -12,31 -4,0 -5,-1 -6,-2 -1,-1 -1,-4 -2,-8 2,-20 4,-42 5,-62 1,-20 2,-36 2,-47 0,-10 0,-24 -1,-40 0,-17 0,-28 0,-33 -1,-3 0,-6 3,-8 2,-4 4,-5 6,-5 6,0 9,4 11,10 1,3 1,8 1,17z"/>
  <path class="fil0" d="M185 90l0 -1c0,-1 0,-2 1,-2 2,0 4,1 6,2 1,1 3,2 6,4 0,0 0,1 0,2 1,2 1,4 1,5 0,3 0,8 -1,16 0,10 0,15 0,18l0 6 0 3c0,1 -1,2 -2,2l-1 0c-2,0 -3,0 -4,-1 -1,0 -2,-1 -2,-2 0,-1 0,-3 0,-7 0,-4 0,-8 0,-11 0,-12 0,-20 -1,-25 0,-5 -1,-8 -3,-9zm3 -37l1 0c2,0 4,0 6,2 1,0 2,1 3,2l0 15c-1,1 -1,1 -2,1 -2,0 -3,-1 -5,-1 -1,-1 -2,-2 -2,-4l-1 -15z"/>
  <path id="_1" class="fil0" d="M204 141c1,-7 2,-14 2,-20 0,-6 0,-10 0,-13 0,-4 0,-7 0,-9 0,-2 0,-4 0,-5l0 -3c1,0 1,0 2,0 1,0 2,0 2,0 2,0 4,1 5,2 1,2 2,4 2,7 0,3 -1,7 -2,12 -1,6 -2,10 -3,15 7,-9 11,-14 11,-15 6,-6 11,-11 14,-13 5,-3 8,-4 10,-4 3,0 4,1 5,4 1,3 2,7 2,12l0 17c3,-7 8,-16 15,-23 7,-8 14,-12 19,-12 2,0 4,1 6,3 2,2 3,4 4,8 1,8 2,15 2,20 2,10 4,15 6,15 1,0 1,0 2,1 0,0 0,0 0,1 0,1 -1,3 -4,4 -2,2 -5,3 -6,3 -2,0 -3,-1 -3,-1 -1,-4 -3,-11 -5,-21 -3,-16 -6,-23 -9,-23 -6,0 -12,5 -19,17 -5,8 -9,16 -11,23 0,0 -1,0 -1,0 0,0 -1,0 -1,0 -1,0 -2,0 -4,-1 -1,-1 -2,-2 -2,-4l0 -1c2,-11 3,-18 3,-23 0,-6 -2,-10 -5,-10l-1 0c-5,0 -11,5 -17,15 -4,7 -8,14 -12,22 0,1 0,1 -1,2 -1,0 -2,0 -3,0 -2,0 -3,0 -3,-1l0 -1z"/>
  <path id="_2" class="fil0" d="M327 118c10,-2 21,-4 32,-5 5,-1 8,-3 8,-6l0 -2c0,-3 -1,-5 -4,-7 -2,-2 -5,-3 -9,-3 -4,0 -8,1 -13,4 -7,4 -12,10 -14,19zm-6 -6c3,-4 6,-7 9,-10 2,-3 6,-5 9,-7 2,-1 5,-2 9,-3 5,-1 9,-1 13,-1 5,0 8,1 11,2 3,2 5,4 5,7 0,3 0,6 1,8 1,2 1,3 1,4 0,0 0,0 0,0 0,1 0,1 -1,1l-51 10c1,6 4,10 8,14 4,3 10,4 17,4 3,0 7,0 12,-1 4,-1 9,-2 14,-4 6,-1 9,-1 10,-1 1,0 2,0 2,0 0,1 0,1 0,1 0,0 0,1 -2,1 -6,3 -14,5 -22,7 -8,1 -15,2 -22,2 -9,0 -15,-1 -20,-4 -5,-2 -8,-6 -8,-12 0,-4 2,-10 5,-18l0 0z"/>
  <path class="fil0" d="M188 223l1 -18c0,-3 0,-7 0,-10 -1,-4 -1,-8 -1,-13 0,-4 1,-6 2,-6l3 0c4,0 7,2 7,6 0,1 -1,6 -3,16 -1,5 -1,9 -1,13 2,-4 5,-9 8,-14 4,-5 8,-10 12,-16l0 -1c0,-2 1,-4 3,-7 2,-3 4,-4 6,-4 0,0 1,0 2,0 1,9 2,15 5,18 3,2 5,3 8,4 -1,1 -2,2 -3,3 -1,1 -3,1 -4,1 -3,0 -6,-1 -9,-3 -3,-1 -5,-3 -6,-6 -1,2 -4,6 -9,13 -7,10 -11,19 -13,28l-2 0c-2,0 -3,0 -4,-1 -1,0 -2,-1 -2,-2l0 -1z"/>
  <path id="_1_0" class="fil0" d="M307 207c0,-1 0,-2 0,-4 0,-2 0,-4 0,-6 0,-2 -1,-5 -1,-8 -2,-3 -5,-6 -8,-8 -3,-1 -6,-2 -9,-2 -4,0 -8,1 -12,3 -4,2 -7,5 -9,7 -2,2 -5,5 -6,9 -2,4 -3,7 -3,11 0,1 1,2 1,3 0,1 0,2 0,3 1,2 3,5 6,6 2,2 6,2 9,2 6,0 11,-1 17,-5 6,-3 11,-7 15,-11zm0 -26c2,0 3,0 5,0 1,0 3,-1 4,-1 0,9 1,17 2,24 1,13 4,21 8,21l0 0 1 1c0,1 -2,2 -5,3 -4,2 -6,2 -8,2 0,0 0,0 0,0 -1,0 -1,0 -1,-1 0,0 -1,-4 -3,-13 0,-3 -1,-6 -2,-6 -2,5 -8,10 -18,13 -8,3 -16,4 -25,4 -4,0 -7,0 -10,-1 -6,-2 -9,-6 -9,-13 0,-8 5,-16 16,-26 10,-10 20,-14 29,-14 3,0 6,0 9,1 3,2 5,4 7,6z"/>
  <path id="_2_1" class="fil0" d="M335 204c2,-7 8,-13 18,-21 10,-7 20,-11 31,-11 4,0 8,1 11,4 2,1 3,3 3,6 0,0 0,1 0,1 -1,1 -1,1 -2,1l-1 0c-1,-1 -4,-2 -7,-3 -3,-1 -7,-1 -11,-1 -8,0 -15,2 -20,6 -7,5 -11,12 -11,21l0 2c0,5 3,8 8,12 6,2 12,4 19,4 4,0 8,-1 11,-2 4,-1 7,-2 10,-5 5,-2 8,-3 10,-3 0,0 0,0 1,0 0,0 0,0 0,1 0,0 -1,1 -2,4 -2,1 -4,2 -5,3 -6,2 -12,4 -19,5 -7,2 -13,3 -19,3 -8,0 -14,-2 -19,-4 -5,-3 -8,-9 -8,-15 0,-1 0,-2 1,-3 0,-1 0,-2 1,-5z"/>
  <path id="_3" class="fil0" d="M421 208c9,-2 17,-7 25,-14 8,-8 15,-18 23,-26 1,0 2,1 3,3 0,2 1,4 1,6 0,2 -1,3 -1,3 -2,3 -5,7 -10,11 -4,2 -9,6 -16,9 2,3 5,6 10,10 4,3 6,5 7,6 2,2 5,5 8,7 3,2 6,3 9,3l2 0 0 1c0,2 -1,4 -3,6 -2,2 -4,3 -6,3l-1 0c-3,-2 -10,-6 -19,-13 -10,-10 -16,-14 -17,-16l-15 6c0,2 1,5 1,9 1,4 1,6 1,8 -1,0 -2,0 -3,0 -1,0 -3,0 -4,-1 -1,-1 -2,-2 -2,-3l0 -51c0,-14 0,-27 0,-35 -1,-8 -1,-15 -2,-22l1 -2 -1 0c1,-1 1,-1 2,-1 2,0 4,1 7,4 3,1 4,3 4,6l0 1 -4 82z"/>
  <path id="_4" class="fil0" d="M500 202c11,-2 22,-3 33,-5 4,-1 7,-3 7,-6l0 -2c0,-3 -1,-6 -3,-8 -2,-2 -6,-2 -10,-2 -3,0 -8,1 -12,4 -7,5 -12,11 -15,19zm-5 -5c2,-4 5,-8 8,-10 3,-4 6,-6 10,-8 1,-1 4,-2 8,-3 5,-1 9,-2 13,-2 5,0 9,1 12,3 3,1 4,3 4,7 0,4 1,7 1,9 1,1 1,2 2,3 0,0 0,1 -1,1 0,0 0,1 0,1l-52 9c1,6 4,10 8,14 4,3 10,5 17,5 3,0 7,-1 12,-2 5,-1 9,-2 15,-3 5,-1 8,-3 9,-3 1,0 2,0 2,2 1,0 1,0 1,0 0,1 -1,1 -2,2 -7,2 -15,4 -23,6 -8,2 -15,3 -22,3 -8,0 -15,-2 -20,-4 -5,-3 -8,-7 -8,-13 0,-5 2,-11 6,-17l0 0z"/>
  <path id="_5" class="fil0" d="M570 223l1 -18c0,-3 0,-7 0,-10 0,-4 0,-8 -1,-13 0,-4 1,-6 2,-6l3 0c5,0 7,2 7,6 0,1 -1,6 -3,16 0,5 -1,9 -1,13 2,-4 5,-9 8,-14 5,-5 9,-10 13,-16l0 -1c0,-2 1,-4 2,-7 2,-3 4,-4 6,-4 1,0 2,0 2,0 1,9 3,15 5,18 3,2 5,3 8,4 0,1 -1,2 -3,3 -1,1 -2,1 -4,1 -3,0 -6,-1 -9,-3 -3,-1 -5,-3 -6,-6 -1,2 -4,6 -9,13 -7,10 -11,19 -13,28l-2 0c-1,0 -3,0 -4,-1 -1,0 -2,-1 -2,-2l0 -1z"/>
  <g id="_2175818201952">
   <sodipodi:namedview id="base" pagecolor="#ffffff" bordercolor="#000000" borderopacity="0.0" inkscape:pageopacity="0.0" inkscape:pageshadow="2" inkscape:zoom="1.4" inkscape:cx="128.87541" inkscape:cy="252.11852" inkscape:document-units="mm" inkscape:current-layer="layer1" showgrid="false" inkscape:window-width="2560" inkscape:window-height="1018" inkscape:window-x="1912" inkscape:window-y="-8" inkscape:window-maximized="1" units="px"/>
   <g id="layer1" inkscape:label="Layer 1" inkscape:groupmode="layer">
    <g id="g10">
     <g id="g12">
      <path id="path24" class="fil1" d="M757 139l68 -84c3,-5 4,-10 1,-15 -2,-5 -6,-8 -11,-9l-146 -24c-5,-1 -10,1 -14,5 -3,4 -4,9 -2,15l41 102 -69 85c-3,4 -4,10 -2,14 2,5 7,9 12,10l146 24c5,1 10,-2 13,-6 4,-3 5,-9 3,-14l-40 -103zm-31 -9l60 -74 -96 -15 36 89 0 0zm-89 93l73 -91 -43 -110 146 24 -74 91 44 110 -146 -24zm87 -85l36 91 -96 -16 60 -75 0 0z" inkscape:connector-curvature="0"/>
     </g>
    </g>
   </g>
  </g>
 </g>
</svg>
