<?xml version="1.0" encoding="UTF-8"?>
<!DOCTYPE svg PUBLIC "-//W3C//DTD SVG 1.1//EN" "http://www.w3.org/Graphics/SVG/1.1/DTD/svg11.dtd">
<!-- Creator: CorelDRAW X7 -->
<svg xmlns="http://www.w3.org/2000/svg" xml:space="preserve" width="25.4mm" height="8.4666mm" version="1.1" style="shape-rendering:geometricPrecision; text-rendering:geometricPrecision; image-rendering:optimizeQuality; fill-rule:evenodd; clip-rule:evenodd"
viewBox="0 0 25400 8467"
 xmlns:xlink="http://www.w3.org/1999/xlink"
 xmlns:dc="http://purl.org/dc/elements/1.1/"
 xmlns:cc="http://creativecommons.org/ns#"
 xmlns:rdf="http://www.w3.org/1999/02/22-rdf-syntax-ns#"
 xmlns:svg="http://www.w3.org/2000/svg"
 xmlns:sodipodi="http://sodipodi.sourceforge.net/DTD/sodipodi-0.dtd"
 xmlns:inkscape="http://www.inkscape.org/namespaces/inkscape"
 inkscape:version="0.92.1 r15371"
 sodipodi:docname="timetrackerlogo.svg">
 <defs>
  <style type="text/css">
   <![CDATA[
    .fil1 {fill:#3E4095}
    .fil0 {fill:#3E4095;fill-rule:nonzero}
   ]]>
  </style>
 </defs>
 <g id="Layer_x0020_1">
  <metadata id="CorelCorpID_0Corel-Layer"/>
  <path class="fil0" d="M6405 1131c0,135 -76,203 -229,203 -158,-22 -317,-41 -478,-55 -161,-14 -340,-21 -538,-21 -220,0 -581,54 -1083,161 -503,107 -937,234 -1304,381 -311,124 -528,231 -652,322 -90,62 -147,129 -169,203 -40,124 -63,192 -68,203 -40,73 -96,110 -169,110 -215,0 -322,-183 -322,-550 0,-226 330,-458 990,-695 441,-169 925,-307 1452,-414 528,-108 978,-161 1351,-161 220,0 443,0 669,0 344,22 527,127 550,313zm-2193 1261c0,159 -4,472 -13,940 -8,469 -15,855 -21,1160 0,497 -45,1005 -135,1524 -90,520 -198,779 -322,779 -79,0 -127,-17 -144,-51 -17,-33 -31,-98 -42,-194 45,-525 85,-1038 118,-1537 34,-500 51,-885 51,-1156 0,-259 -5,-592 -17,-999 -11,-406 -17,-677 -17,-813 -5,-79 23,-149 85,-211 62,-62 113,-93 152,-93 147,0 240,76 280,228 17,68 25,209 25,423z"/>
  <path class="fil0" d="M5592 2783l-10 -22c0,-28 14,-42 43,-42 36,0 86,16 148,47 28,14 76,42 144,85 5,6 10,30 12,72 3,42 5,83 5,123 0,71 -3,208 -9,412 -5,204 -8,346 -8,429l0 148 0 64c0,31 -14,52 -41,64l-45 0c-30,0 -61,-9 -94,-26 -33,-17 -49,-32 -49,-46 -2,-23 -3,-86 -3,-192 -1,-105 -1,-198 -1,-277 0,-273 -5,-476 -14,-609 -9,-134 -35,-211 -78,-230zm62 -919l43 0c39,0 87,15 144,47 17,8 42,25 76,50l0 398c-12,12 -31,17 -59,17 -40,0 -78,-10 -115,-29 -36,-20 -55,-48 -55,-85l-34 -398z"/>
  <path id="1" class="fil0" d="M6078 4061c20,-190 33,-359 38,-505 5,-146 8,-248 8,-305 0,-108 -1,-187 -4,-236 -3,-50 -6,-96 -9,-139l13 -68c14,0 31,0 52,0 21,0 36,0 44,0 64,0 109,20 136,59 26,40 39,96 39,170 0,79 -13,179 -38,302 -25,123 -51,245 -76,366 178,-225 272,-344 283,-355 142,-164 256,-277 343,-339 116,-65 204,-97 263,-97 62,0 104,35 127,106 22,70 34,170 34,300l0 415c93,-195 223,-382 389,-563 189,-203 347,-305 474,-305 60,0 112,23 157,68 45,45 78,117 97,216 26,183 50,340 72,470 45,251 96,377 153,377 14,2 26,12 38,30 3,6 7,14 12,25 0,32 -34,69 -103,112 -69,43 -127,65 -172,65 -36,0 -59,-11 -67,-34 -26,-79 -68,-255 -127,-527 -82,-368 -159,-552 -229,-552 -144,0 -303,138 -478,415 -133,206 -226,394 -280,563 -8,6 -17,10 -25,13 -9,2 -17,4 -26,4 -31,0 -64,-13 -99,-38 -35,-26 -53,-54 -53,-85l0 -25c48,-277 72,-466 72,-568 0,-163 -44,-245 -131,-245l-26 0c-127,0 -269,116 -427,347 -110,164 -212,351 -305,563 0,17 -10,30 -30,38 -19,9 -42,13 -67,13 -48,0 -72,-11 -72,-34l0 -17z"/>
  <path id="2" class="fil0" d="M9185 3477c276,-40 553,-79 830,-119 124,-25 186,-73 186,-144l0 -55c0,-73 -27,-132 -81,-177 -53,-46 -134,-68 -241,-68 -93,0 -200,35 -322,106 -177,104 -302,256 -372,457zm-131 -131c65,-102 134,-187 207,-254 73,-68 157,-127 250,-178 34,-20 108,-43 222,-68 114,-25 222,-38 324,-38 116,0 212,18 290,55 78,37 116,97 116,182 0,82 10,151 30,207 11,29 23,57 34,85 -3,6 -6,12 -9,19 -2,7 -10,15 -21,23l-1312 229c34,144 104,255 209,334 106,80 248,119 426,119 85,0 186,-11 305,-34 118,-22 242,-53 372,-93 136,-28 219,-42 250,-42 20,0 37,7 51,21 3,5 5,10 8,13 0,14 -17,26 -51,38 -175,65 -364,117 -567,158 -203,41 -394,62 -571,62 -209,0 -376,-31 -500,-93 -138,-71 -207,-175 -207,-314 0,-115 48,-259 144,-431z"/>
  <path class="fil0" d="M5666 6067l17 -440c0,-85 -2,-172 -6,-260 -4,-89 -8,-185 -11,-286 0,-107 16,-161 47,-161l76 0c113,0 169,54 169,161 0,5 -21,127 -63,364 -23,127 -34,237 -34,330 50,-105 121,-217 212,-336 103,-130 206,-260 309,-391l0 -25c0,-52 24,-112 72,-181 48,-70 94,-104 139,-104 23,0 41,4 55,13 23,215 67,361 132,434 65,35 130,67 194,98 -8,28 -29,52 -63,69 -34,17 -69,25 -106,25 -76,0 -154,-22 -233,-66 -79,-43 -128,-95 -148,-154 -28,45 -104,154 -228,327 -178,248 -290,478 -335,689l-57 0c-30,0 -60,-9 -91,-28 -31,-18 -47,-36 -47,-52l0 -26z"/>
  <path id="1" class="fil0" d="M8680 5678c6,-17 9,-53 9,-106 0,-40 -3,-86 -9,-138 -5,-52 -15,-123 -29,-214 -51,-76 -113,-131 -186,-167 -74,-35 -150,-53 -229,-53 -104,0 -207,23 -309,68 -102,45 -178,96 -229,152 -65,65 -118,143 -158,233 -41,91 -62,181 -62,271 0,23 4,50 11,81 7,31 12,53 15,67 22,62 67,110 135,144 68,34 147,51 237,51 138,0 281,-34 428,-101 163,-77 289,-173 376,-288zm0 -627c48,0 91,-2 130,-6 38,-4 71,-14 99,-28 14,215 31,408 51,580 42,342 110,512 203,512l17 0 17 29c0,24 -44,52 -131,84 -88,32 -153,48 -195,48 -9,0 -15,-1 -19,-4 -4,-3 -10,-10 -17,-21 -7,-11 -29,-116 -66,-313 -17,-85 -35,-137 -55,-157 -65,127 -216,230 -453,309 -209,71 -419,106 -630,106 -108,0 -194,-9 -259,-26 -152,-53 -228,-153 -228,-300 0,-203 129,-421 387,-654 258,-233 509,-349 752,-349 81,0 156,14 224,44 68,30 125,78 173,146z"/>
  <path id="2" class="fil0" d="M9387 5610c51,-175 204,-347 458,-517 268,-180 530,-270 787,-270 124,0 220,28 288,84 56,48 84,99 84,153 0,14 -5,29 -16,46 -12,17 -24,26 -39,26l-24 -17c-37,-26 -98,-48 -184,-68 -85,-20 -175,-30 -271,-30 -207,0 -381,47 -521,140 -180,118 -270,292 -270,521l0 63c0,110 70,198 210,263 140,65 300,97 480,97 96,0 191,-11 284,-34 93,-22 172,-55 237,-97 136,-65 220,-98 254,-98 9,0 16,4 21,11 6,7 10,12 13,15 0,20 -20,48 -59,84 -40,37 -83,65 -131,85 -130,48 -285,91 -464,129 -179,38 -346,57 -502,57 -200,0 -355,-31 -465,-93 -136,-76 -204,-194 -204,-355 0,-29 3,-53 7,-74 4,-22 13,-62 27,-121z"/>
  <path id="3" class="fil0" d="M11593 5707c206,-62 412,-185 618,-368 198,-203 397,-408 597,-614 20,0 39,26 59,76 20,51 30,99 30,144 0,40 -9,64 -26,72 -45,76 -128,160 -249,250 -99,71 -232,152 -398,246 39,56 124,138 254,245 90,76 146,126 169,148 62,62 132,117 210,163 77,47 150,70 218,70l59 0 0 25c0,44 -27,94 -81,151 -53,58 -103,87 -148,87l-34 0c-81,-55 -238,-170 -469,-348 -271,-208 -421,-333 -449,-376l-360 161c0,47 6,117 17,207 11,90 17,151 17,182 -11,6 -33,8 -64,8 -39,0 -74,-8 -103,-25 -30,-17 -50,-44 -62,-80l17 -1246c0,-358 -6,-640 -19,-844 -13,-205 -25,-390 -36,-558l9 -38 -9 -8c17,-11 30,-17 38,-17 51,0 113,23 186,68 74,45 111,96 111,153l0 34 -102 2032z"/>
  <path id="4" class="fil0" d="M13587 5546c276,-39 553,-79 830,-118 124,-26 186,-73 186,-144l0 -55c0,-73 -27,-133 -81,-178 -53,-45 -134,-68 -241,-68 -93,0 -200,36 -322,106 -177,105 -302,257 -372,457zm-131 -131c65,-101 134,-186 207,-254 73,-68 157,-127 250,-178 34,-19 108,-42 222,-67 114,-26 222,-38 324,-38 116,0 212,18 290,55 78,36 116,97 116,182 0,81 10,151 30,207 11,28 23,57 34,85 -3,5 -6,12 -9,19 -2,7 -10,15 -21,23l-1312 229c34,144 104,255 209,334 106,79 248,119 426,119 85,0 186,-12 305,-34 118,-23 242,-54 372,-93 136,-29 219,-43 250,-43 20,0 37,7 51,21 3,6 5,10 8,13 0,14 -17,27 -51,38 -175,65 -364,118 -567,159 -203,41 -394,61 -571,61 -209,0 -376,-31 -500,-93 -138,-70 -207,-175 -207,-313 0,-116 48,-260 144,-432z"/>
  <path id="5" class="fil0" d="M15378 6067l16 -440c0,-85 -2,-172 -6,-260 -4,-89 -8,-185 -10,-286 0,-107 15,-161 46,-161l76 0c113,0 170,54 170,161 0,5 -22,127 -64,364 -22,127 -34,237 -34,330 50,-105 121,-217 213,-336 103,-130 205,-260 308,-391l0 -25c0,-52 24,-112 72,-181 48,-70 94,-104 140,-104 22,0 41,4 55,13 22,215 66,361 131,434 65,35 130,67 195,98 -9,28 -30,52 -64,69 -34,17 -69,25 -106,25 -76,0 -154,-22 -233,-66 -79,-43 -128,-95 -148,-154 -28,45 -104,154 -228,327 -178,248 -290,478 -335,689l-57 0c-30,0 -60,-9 -91,-28 -31,-18 -46,-36 -46,-52l0 -26z"/>
  <g id="_2175818201952">
   <sodipodi:namedview id="base" pagecolor="#ffffff" bordercolor="#000000" borderopacity="0.0" inkscape:pageopacity="0.0" inkscape:pageshadow="2" inkscape:zoom="1.4" inkscape:cx="128.87541" inkscape:cy="252.11852" inkscape:document-units="mm" inkscape:current-layer="layer1" showgrid="false" inkscape:window-width="2560" inkscape:window-height="1018" inkscape:window-x="1912" inkscape:window-y="-8" inkscape:window-maximized="1" units="px"/>
   <g id="layer1" inkscape:label="Layer 1" inkscape:groupmode="layer">
    <g id="g10">
     <g id="g12">
      <path id="path24" class="fil1" d="M20516 4030l1599 -2246c74,-105 74,-235 -4,-342 -77,-109 -218,-172 -370,-172l-4300 0c-154,0 -295,63 -370,172 -76,107 -80,237 -4,342l1599 2246 -1599 2246c-76,107 -72,237 4,344 75,105 216,172 370,172l4300 0c152,0 293,-67 370,-172 78,-107 78,-237 4,-344l-1599 -2246zm-919 -89l1411 -1980 -2818 0 1407 1980zm-2156 2505l1718 -2416 -1718 -2416 4300 0 -1720 2416 1720 2416 -4300 0zm2150 -2322l1409 1980 -2816 0 1407 -1980z" inkscape:connector-curvature="0"/>
     </g>
    </g>
   </g>
  </g>
 </g>
</svg>
